<?xml version="1.0" encoding="utf-8"?>
<!-- Generator: Adobe Illustrator 24.0.1, SVG Export Plug-In . SVG Version: 6.00 Build 0)  -->
<svg version="1.1" id="Layer_1" xmlns="http://www.w3.org/2000/svg" xmlns:xlink="http://www.w3.org/1999/xlink" x="0px"
     y="0px"
     viewBox="0 0 512 512" style="enable-background:new 0 0 512 512;" xml:space="preserve">
<style type="text/css">
	.st0{fill:#231F20;}
	.st1{opacity:0.19;fill:#231F20;enable-background:new    ;}
	.st2{opacity:0.19;}
</style>
    <rect x="37.6" y="218.4" class="st0" width="446.7" height="70.7"/>
    <rect x="188.1" y="218.4" class="st0" width="127.8" height="70.7"/>
    <polygon class="st1"
             points="486.6,218.4 173.6,218.4 39.9,218.4 39.9,245 39.9,289.1 173.6,289.1 173.6,245 486.6,245 "/>
    <g>
	<path class="st0" d="M43.8,218.4h-6.2C16.9,218.4,0,235.3,0,256c0,20.7,16.9,37.6,37.6,37.6h6.2c6.4,0,11.6-5.2,11.6-11.6v-52
		C55.4,223.6,50.2,218.4,43.8,218.4z"/>
        <path class="st0" d="M474.4,218.4h-6.2c-6.4,0-11.6,5.2-11.6,11.6v52c0,6.4,5.2,11.6,11.6,11.6h6.2c20.7,0,37.6-16.9,37.6-37.6
		C512,235.3,495.1,218.4,474.4,218.4z"/>
</g>
    <g class="st2">
	<path class="st0" d="M43.8,218.4h-6.2C16.9,218.4,0,235.3,0,256c0,20.7,16.9,37.6,37.6,37.6h6.2c6.4,0,11.6-5.2,11.6-11.6v-52
		C55.4,223.6,50.2,218.4,43.8,218.4z"/>
        <path class="st0" d="M474.4,218.4h-6.2c-6.4,0-11.6,5.2-11.6,11.6v52c0,6.4,5.2,11.6,11.6,11.6h6.2c20.7,0,37.6-16.9,37.6-37.6
		C512,235.3,495.1,218.4,474.4,218.4z"/>
</g>
    <g>
	<path class="st0" d="M87.3,134.8H46.1c-6.4,0-11.6,5.2-11.6,11.6v219.2c0,6.4,5.2,11.6,11.6,11.6h41.2c6.4,0,11.6-5.2,11.6-11.6
		V146.4C98.9,140,93.7,134.8,87.3,134.8z"/>
        <path class="st0" d="M467,134.8h-41.2c-6.4,0-11.6,5.2-11.6,11.6v219.2c0,6.4,5.2,11.6,11.6,11.6H467c6.4,0,11.6-5.2,11.6-11.6
		V146.4C478.6,140,473.4,134.8,467,134.8z"/>
</g>
    <g>
	<path class="st1" d="M455.7,170.3c0-6.4,5.2-11.6,11.6-11.6h11.4v-12.3c0-6.4-5.2-11.6-11.6-11.6h-41.2c-6.4,0-11.6,5.2-11.6,11.6
		v219.2c0,6.4,5.2,11.6,11.6,11.6h29.9L455.7,170.3L455.7,170.3z"/>
        <path class="st1" d="M54.2,169.5c0-6.4,5.2-11.6,11.6-11.6h33.1v-11.6c0-6.4-5.2-11.6-11.6-11.6H46.1c-6.4,0-11.6,5.2-11.6,11.6
		v219.2c0,6.4,5.2,11.6,11.6,11.6h8.1L54.2,169.5L54.2,169.5z"/>
</g>
    <g>
	<path class="st0" d="M422.9,82.7h-47.6c-6.4,0-11.6,5.2-11.6,11.6v323.5c0,6.4,5.2,11.6,11.6,11.6h47.6c6.4,0,11.6-5.2,11.6-11.6
		V94.2C434.5,87.8,429.3,82.7,422.9,82.7z"/>
        <path class="st0" d="M136.7,82.7H89.1c-6.4,0-11.6,5.2-11.6,11.6v323.5c0,6.4,5.2,11.6,11.6,11.6h47.6c6.4,0,11.6-5.2,11.6-11.6
		V94.2C148.2,87.8,143,82.7,136.7,82.7z"/>
</g>
    <g>
	<path class="st1" d="M388.1,117.3c0-6.4,5.2-11.6,11.6-11.6h34.9V94.2c0-6.4-5.2-11.6-11.6-11.6h-47.6c-6.4,0-11.6,5.2-11.6,11.6
		v323.5c0,6.4,5.2,11.6,11.6,11.6h12.7L388.1,117.3L388.1,117.3z"/>
        <path class="st1" d="M101.8,117.3c0-6.4,5.2-11.6,11.6-11.6h34.9V94.2c0-6.4-5.2-11.6-11.6-11.6H89.1c-6.4,0-11.6,5.2-11.6,11.6
		v323.5c0,6.4,5.2,11.6,11.6,11.6h12.7L101.8,117.3L101.8,117.3z"/>
</g>
</svg>
