<?xml version="1.0" encoding="utf-8"?>
<!-- Generator: Adobe Illustrator 24.0.1, SVG Export Plug-In . SVG Version: 6.00 Build 0)  -->
<svg version="1.1" id="Layer_1" xmlns="http://www.w3.org/2000/svg" xmlns:xlink="http://www.w3.org/1999/xlink" x="0px" y="0px"
	 viewBox="0 0 473.7 473.7" style="enable-background:new 0 0 473.7 473.7;" xml:space="preserve">
<style type="text/css">
	.st0{fill:#231F20;}
</style>
<path class="st0" d="M161.3,108.1c0,0-5.7,105.3,11.8,158.5c0.8,2.3-0.5,2.4,0,0c7.1-33,101.3-68.1,127.4-6
	c0.9,2.2-49.4,14.1-47.6,12.5c17.4-15.4,120.7-98.9,184.4-26.7c0.2,0.2,0.4,0.5,0.5,0.8c7.4,17.1,71,173.8-75.1,166.4
	c-0.4,0-0.8,0-1.2,0.1c-4.1,0.7-20.6,14.4-46,5.4c-1-0.3-2,0.3-2.8,0.9c-11,7.1-58.2,67.6-196.9,4.7c0,0-34.8-16.5-50.9-19.3
	c0,0-37.4-5.5-45.5-46.6c0-0.1,0-0.3-0.1-0.4c-0.5-4.1-7.6-66.5,2.6-93.2c0-0.1,0.1-0.2,0.1-0.3c2.4-5.2,61.7-132.5,77.5-170.4
	c0-0.1,0.1-0.2,0.1-0.3c1.1-2.3,16.2-33.5,21.4-49.4c0,0,13.4-38.5,42.9-38.5c0,0,56.2,0,78,8.1c0.4,0.1,0.7,0.3,1.1,0.6
	c3.1,2,17.9,12.4,20.6,27.7c0,0.1,0,0.2,0,0.3c0.3,2.6,4.6,37.1,3.4,53.2c0,0.3-0.1,0.5-0.1,0.8c-0.6,2.5-4.3,13.7-18.6,8.6
	c-2-0.7-4.1-0.2-5.6,1.3c-3.5,3.7-11,9-20.6,1.9c-1.8-1.3-4.3-1.4-6.2-0.2c-3.5,2.2-10.2,3.9-20.1-3.5c-1.7-1.3-4-1.5-5.9-0.4
	c-4.6,2.5-13.5,5.8-18.9-2.1c-1.3-1.9-3.7-2.9-5.9-2.2l0,0c-2.3,0.7-3.9,2.8-3.9,5.1L161.3,108.1L161.3,108.1L161.3,108.1z"/>
</svg>
