<svg height="512pt" viewBox="0 -30 512 512" width="512pt" xmlns="http://www.w3.org/2000/svg">
    <path d="m496.136719 291.480469-151-242c-19.332031-30.984375-52.65625-49.480469-89.136719-49.480469s-69.804688 18.496094-89.136719 49.480469l-151 242c-10.378906 16.632812-15.863281 35.832031-15.863281 55.519531 0 57.898438 47.101562 105 105 105h302c57.898438 0 105-47.101562 105-105 0-19.6875-5.484375-38.886719-15.863281-55.519531zm-89.136719 130.519531h-302c-41.355469 0-75-33.644531-75-75 0-14.066406 3.914062-27.773438 11.316406-39.636719l151-242c13.816406-22.144531 37.621094-35.363281 63.683594-35.363281s49.867188 13.21875 63.683594 35.363281l151 242c7.402344 11.863281 11.316406 25.570313 11.316406 39.636719 0 41.355469-33.644531 75-75 75zm0 0"/>
    <path d="m294.234375 81.242188c-8.300781-13.300782-22.59375-21.242188-38.234375-21.242188s-29.933594 7.941406-38.234375 21.242188l-150.996094 242c-4.429687 7.097656-6.769531 15.3125-6.769531 23.757812 0 24.8125 20.1875 45 45 45h302c24.8125 0 45-20.1875 45-45 0-8.445312-2.339844-16.660156-6.765625-23.757812zm-23.234375 249.757812h-30v-30h30zm0-60h-30v-106h30zm0 0"/>
</svg>
